<?xml version="1.0" standalone="no"?>
<!DOCTYPE svg PUBLIC "-//W3C//DTD SVG 20010904//EN"
 "http://www.w3.org/TR/2001/REC-SVG-20010904/DTD/svg10.dtd">
<svg version="1.0" xmlns="http://www.w3.org/2000/svg"
 width="24.000000pt" height="24.000000pt" viewBox="0 0 24.000000 24.000000"
 preserveAspectRatio="xMidYMid meet">

<g transform="translate(0.000000,24.000000) scale(0.100000,-0.100000)"
fill="#000000" stroke="none">
<path d="M20 120 l0 -100 75 0 c68 0 75 2 75 20 0 22 -19 27 -37 9 -17 -17
-60 16 -60 46 -1 30 43 63 60 46 19 -19 37 -12 37 14 0 22 -4 25 -36 25 -27 0
-37 5 -41 20 -4 15 -14 20 -39 20 l-34 0 0 -100z"/>
<path d="M123 203 c9 -2 25 -2 35 0 9 3 1 5 -18 5 -19 0 -27 -2 -17 -5z"/>
<path d="M94 105 c-8 -19 4 -35 24 -34 15 1 15 2 0 6 -10 2 -18 11 -18 18 0 7
8 16 18 18 16 4 16 5 -1 6 -10 0 -20 -6 -23 -14z"/>
</g>
</svg>
